<?xml version="1.0" encoding="UTF-8"?>
<svg version="1.1" xmlns="http://www.w3.org/2000/svg" width="512" height="512">
<path d="M0 0 C10.44649388 3.81648716 18.05919674 10.03490757 24.4375 19 C24.90631592 19.65154053 25.37513184 20.30308105 25.8581543 20.97436523 C44 46.60695767 44 46.60695767 44 58 C47.22513059 55.170208 49.32397848 51.57200694 51.625 48 C62.99836302 30.69225594 76.99479949 13.22022735 98 8 C102.364518 7.40360624 105.73407177 7.46549697 109.8125 9.1875 C115.35531318 13.78011663 118.4651663 19.44319975 119.3046875 26.59594727 C119.43879282 29.46676626 119.46731199 32.3137187 119.4375 35.1875 C119.42614014 36.71334717 119.42614014 36.71334717 119.41455078 38.27001953 C119.10782769 52.30987713 115.08575057 63.39868651 104.8125 73.25 C99.23852386 77.99119193 92.89049771 80.70316743 86 83 C86.79664063 83.58394531 86.79664063 83.58394531 87.609375 84.1796875 C93.30632206 88.69150324 96.22118176 92.92947717 98 100 C98.99784485 108.98060362 96.28452709 119.5926287 91 127 C84.89470707 133.33798104 80.92832617 136.13869037 72 136.3125 C62.38062067 136.33336885 54.28256384 133.84087929 46.7265625 127.79296875 C43.69928788 124.64926049 41.81883504 120.93497965 40 117 C39.01 118.5778125 39.01 118.5778125 38 120.1875 C33.74735592 126.13879228 27.92200421 129.01620298 21 131 C11.84141503 132.31747626 3.58470764 132.89767168 -4.625 128.125 C-10.50894129 123.61757709 -14.0082318 115.20684889 -15 108 C-15.61295031 98.02777003 -15.46659614 91.210114 -9.1875 83.25 C-6.49018036 80.24171118 -3.7758062 78.52830251 0 77 C-2.14237901 75.35934909 -4.30100977 73.8004024 -6.55078125 72.30859375 C-17.21620068 65.08265895 -22.93855089 56.78150686 -25.58203125 44.23828125 C-27.18721511 31.80185678 -25.03903613 18.53953411 -19.125 7.5 C-13.21359934 0.54541099 -9.27115655 -1.69770529 0 0 Z " fill="#FBF1D7" transform="translate(217,48)"/>
<path d="M0 0 C12.20612546 5.75667268 18.57542191 17.4744207 22.98461914 29.65429688 C27.4275251 42.75307624 29.57967677 56.28266778 31 70 C31.48726563 69.53851563 31.97453125 69.07703125 32.4765625 68.6015625 C49.85794158 52.61069375 71.28064767 38.14703543 95.59765625 38.71484375 C101.25240146 39.18877762 104.42533254 40.30101669 108.375 44.5625 C112.50117483 50.75176225 111.60079667 58.7707954 111 66 C108.3897115 79.0066947 101.5229819 91.24829443 90.453125 98.71875 C81.81242497 103.58809477 72.69191558 104.77235736 63 106 C63.93392578 107.12341797 63.93392578 107.12341797 64.88671875 108.26953125 C68.65834919 113.14267299 70.34107139 117.66750068 70 123.875 C68.55383 133.90588127 62.76744362 142.2686241 55.04296875 148.60546875 C48.4982639 152.94027326 41.61984489 153.05131269 34 152 C25.53906167 149.5058729 17.14079166 143.10482232 12.51953125 135.59375 C10.79217521 131.85218458 9.52972654 128.10538065 9 124 C8.01 124.78375 7.02 125.5675 6 126.375 C-0.66117916 131.08721692 -8.00311097 131.7468359 -16 131 C-26.01691207 129.26727657 -32.89575681 126.47811554 -39 118 C-42.9767676 108.21103359 -41.89731425 97.17954634 -38.20703125 87.46484375 C-36.63437109 84.25335972 -34.8203647 82.18578264 -32 80 C-31.11054688 79.24976563 -31.11054688 79.24976563 -30.203125 78.484375 C-27.60264289 76.73227713 -25.28484963 76.07121241 -22.25 75.3125 C-21.26515625 75.06113281 -20.2803125 74.80976563 -19.265625 74.55078125 C-18.51796875 74.36902344 -17.7703125 74.18726563 -17 74 C-17.680625 73.54625 -18.36125 73.0925 -19.0625 72.625 C-27.0417564 65.49460066 -32.15796361 56.12553436 -33.4140625 45.49609375 C-33.96181666 31.67250845 -29.6866795 18.85834938 -21 8 C-14.44436664 1.32560516 -9.56849809 -1.61498762 0 0 Z " fill="#FDAFAB" transform="translate(169,312)"/>
<path d="M0 0 C12.90898918 5.82768015 23.97248669 16.66529764 29.09765625 29.93359375 C32.33784853 40.8926441 30.78201187 51.42864579 26.9765625 62.03125 C28.03875 61.97324219 29.1009375 61.91523438 30.1953125 61.85546875 C44.07568761 61.31712619 44.07568761 61.31712619 49.30859375 65.41796875 C57.24632107 73.09544271 63.03775612 80.9063297 63.2890625 92.28125 C63.20213106 100.12246611 61.1371572 103.77704057 55.9765625 109.59375 C49.85241889 115.41562901 41.60032409 119.67003134 33.08984375 120.15234375 C29.53232394 119.94849326 26.37699134 119.08229164 22.9765625 118.03125 C23.4715625 119.26875 23.4715625 119.26875 23.9765625 120.53125 C26.1391319 128.10024288 25.03889121 134.88222206 21.9765625 142.03125 C17.56729441 149.68066206 12.57380062 156.1445861 3.9765625 159.03125 C-6.0912427 160.25590523 -14.13415274 157.98181675 -22.3359375 152.15625 C-27.25099688 148.21427308 -31.02487886 144.12506942 -33.0234375 138.03125 C-33.21875 135.2421875 -33.21875 135.2421875 -33.1484375 132.40625 C-33.13039063 131.46523438 -33.11234375 130.52421875 -33.09375 129.5546875 C-33.07054687 128.72195313 -33.04734375 127.88921875 -33.0234375 127.03125 C-33.0234375 126.04125 -33.0234375 125.05125 -33.0234375 124.03125 C-33.69246094 124.32 -34.36148438 124.60875 -35.05078125 124.90625 C-46.28783449 129.25023837 -59.1940184 130.29568011 -70.47265625 125.41796875 C-83.11880458 118.54295702 -93.118722 108.76087331 -98.0234375 95.03125 C-98.93902317 90.02370069 -98.61186465 86.38719083 -96.5859375 81.71875 C-89.45926541 74.24443537 -78.92152205 71.14872921 -68.796875 70.5625 C-66.99767712 70.52902193 -65.19790793 70.51941979 -63.3984375 70.53125 C-62.42712891 70.53334473 -61.45582031 70.53543945 -60.45507812 70.53759766 C-46.41571801 70.83064357 -32.43967734 73.99884083 -19.0234375 78.03125 C-19.42175781 76.78472656 -19.82007813 75.53820312 -20.23046875 74.25390625 C-26.83539571 53.20928549 -33.85103074 28.08028273 -23.2109375 7.15625 C-16.99992203 -1.71662924 -10.44511205 -3.34675425 0 0 Z " fill="#B3DBDB" transform="translate(433.0234375,152.96875)"/>
<path d="M0 0 C10.36810044 12.88157933 11.30760133 27.63602988 10.0625 43.5625 C8.65547848 55.02626547 6.1600749 66.43939014 3.0625 77.5625 C3.92488281 77.24796875 4.78726563 76.9334375 5.67578125 76.609375 C25.46036035 69.6732818 50.48171639 62.89646648 70.77734375 71.35546875 C75.64579932 73.92701195 79.95170011 76.2177223 82.0625 81.5625 C83.5739853 90.39887558 80.90648934 97.24975934 76.0625 104.5625 C67.65770501 115.7896459 57.17804698 124.21695252 43.0625 126.5625 C34.59073559 127.61406516 26.05964523 125.22821508 18.0625 122.5625 C18.3925 123.5525 18.7225 124.5425 19.0625 125.5625 C19.73243788 132.97574699 19.76072022 139.51653295 15.0625 145.5625 C8.98629472 152.056519 1.37746812 158.03553276 -7.79296875 158.80078125 C-16.03690976 158.98440948 -21.60594225 158.5035819 -27.80078125 152.8671875 C-34.38919389 145.89786021 -38.60031871 137.74415698 -39.125 128.125 C-38.93782649 124.56870333 -38.22606169 121.86443933 -36.9375 118.5625 C-38.1440625 119.0575 -38.1440625 119.0575 -39.375 119.5625 C-47.92270298 121.96185522 -55.00242195 120.35396481 -62.9375 116.5625 C-69.13170055 112.85665933 -75.60116063 107.57151812 -77.9375 100.5625 C-78.87809639 88.56604118 -76.93398953 80.7182481 -69.5078125 71.3515625 C-65.10055868 66.33036288 -60.59793751 62.87156915 -53.69921875 62.4140625 C-49.9157316 62.35213963 -46.59335616 62.52860403 -42.9375 63.5625 C-43.21464844 62.84707031 -43.49179687 62.13164062 -43.77734375 61.39453125 C-48.06527957 49.59889285 -49.573068 38.49628059 -44.9375 26.5625 C-39.08425095 14.75871798 -29.7179255 5.42028956 -17.9375 -0.4375 C-12.25866635 -2.33044455 -5.42619575 -2.65537239 0 0 Z " fill="#E7CFE3" transform="translate(93.9375,129.4375)"/>
<path d="M0 0 C5.3491105 2.54593915 10.04987969 5.12438853 13.73046875 9.8203125 C14.22546875 11.3053125 14.22546875 11.3053125 14.73046875 12.8203125 C13.74046875 12.418125 13.74046875 12.418125 12.73046875 12.0078125 C11.74046875 11.6159375 10.75046875 11.2240625 9.73046875 10.8203125 C9.11429687 10.55605469 8.498125 10.29179687 7.86328125 10.01953125 C3.34075656 8.16300847 -0.30223999 7.25797764 -5.26953125 7.8203125 C-11.26974945 10.4715717 -14.03030597 14.81876824 -16.359375 20.7578125 C-18.52065729 26.86214402 -18.88522086 32.38716164 -18.76953125 38.8203125 C-18.75817139 39.90683105 -18.74681152 40.99334961 -18.73510742 42.11279297 C-18.39526751 56.44078049 -15.02114524 69.58462155 -10.22265625 83.01171875 C-9.26953125 85.8203125 -9.26953125 85.8203125 -9.26953125 87.8203125 C-14.18354461 86.76730964 -19.05230203 85.62251223 -23.91455078 84.34960938 C-42.65031968 79.49434438 -64.1672679 75.7955123 -81.95703125 85.6328125 C-85.79363285 88.2073741 -88.0910605 90.19708112 -89.26953125 94.8203125 C-89.62916582 101.25653118 -87.42704887 106.12559267 -84.328125 111.65625 C-83.26953125 113.8203125 -83.26953125 113.8203125 -83.26953125 116.8203125 C-90.84689608 109.2092705 -98.37153511 100.68129415 -98.89453125 89.4453125 C-98.55297823 84.90338408 -97.47495728 82.18210077 -94.26953125 78.8203125 C-85.28360914 72.29526532 -74.55063074 70.24861284 -63.64453125 70.3203125 C-62.67322266 70.32240723 -61.70191406 70.32450195 -60.70117188 70.32666016 C-46.66181176 70.61970607 -32.68577109 73.78790333 -19.26953125 77.8203125 C-19.66785156 76.57378906 -20.06617188 75.32726562 -20.4765625 74.04296875 C-27.08148946 52.99834799 -34.09712449 27.86934523 -23.45703125 6.9453125 C-17.23384816 -1.94494906 -10.41026896 -3.75615439 0 0 Z " fill="#C1E1E1" transform="translate(433.26953125,153.1796875)"/>
<path d="M0 0 C4.92776976 2.63878082 10.17605462 5.52816386 12 11 C10.7315625 10.505 10.7315625 10.505 9.4375 10 C5.00479904 8.71048699 1.36122533 7.9729816 -3.01171875 9.875 C-14.17414733 16.33857769 -19.34106153 27.77666049 -23.1796875 39.6484375 C-25.99254344 51.14096319 -22.35681279 61.36309671 -18 72 C-24.26578419 69.45796036 -27.34390059 63.18666359 -30.33984375 57.421875 C-35.23805413 45.77773075 -33.83570459 34.03281906 -29.546875 22.515625 C-23.91909558 9.72521723 -15.42855616 -2.75579242 0 0 Z " fill="#FDBDBA" transform="translate(169,312)"/>
<path d="M0 0 C5.11738634 2.88089898 8.72442758 5.83216736 12.13671875 10.609375 C9.33103781 9.50410675 6.57226628 8.35377388 3.82421875 7.109375 C-5.37259428 3.36829851 -14.59943121 1.81655235 -24.17578125 5.171875 C-31.11582368 8.33943795 -34.38207988 12.90730152 -37.23828125 19.859375 C-40.14597048 28.70359641 -39.18606863 36.75374813 -36.86328125 45.609375 C-41.91429102 43.33104719 -44.91984638 39.92210076 -46.98828125 34.8515625 C-49.69860239 24.80885472 -48.41582363 13.90599067 -43.86328125 4.609375 C-41.36328125 1.546875 -41.36328125 1.546875 -38.86328125 -0.390625 C-38.22390625 -0.9475 -37.58453125 -1.504375 -36.92578125 -2.078125 C-25.750013 -9.18997752 -11.05866973 -5.37092282 0 0 Z " fill="#FDBEBB" transform="translate(175.86328125,392.390625)"/>
</svg>
