<?xml version="1.0" encoding="UTF-8" standalone="no"?>
<svg width="64" height="64" viewBox="0 0 180 180" xmlns="http://www.w3.org/2000/svg">
    <g transform="translate(10, 20) scale(4.5)">
        <!-- Face -->
        <path
            fill="#f9d9bd"
            d="M32 20c0-2.209-1.119-4-2.5-4c-.012 0-.021.005-.033.005C27.955 9.704 23.394 5.125 18 5.125s-9.956 4.58-11.467 10.88C6.521 16.004 6.511 16 6.5 16C5.119 16 4 17.791 4 20c0 2.107 1.021 3.815 2.314 3.97C7.537 30.619 12.299 35 18 35c5.7 0 10.463-4.381 11.685-11.03C30.979 23.815 32 22.107 32 20z"
        />
        <!-- Hair -->
        <path
            fill="#5a220c"
            d="M18 1c8 0 13 6 13 11s-1 7-2 5l-2-4s-6 0-8-2c0 0 3 6-3 0c0 0 1 4-5-1c0 0-3 2-4 7c-.277 1.387-2 0-2-5S9 1 18 1z"
        />
    </g>

    <!-- Eyes -->
    <ellipse cx="75" cy="110" rx="12" ry="14" fill="white"/>
    <ellipse cx="105" cy="110" rx="12" ry="14" fill="white"/>

    <!-- Pupils -->
    <circle cx="75" cy="110" r="3" fill="black"/>
    <circle cx="105" cy="110" r="3" fill="black"/>

    <!-- Smiling Mouth -->
    <path d="M75 155 Q90 160, 105 155" stroke="#a0522d" stroke-width="3" fill="none"/>
</svg>
